#!OML:ASF E:/inclinewalkrobotboard/Project1/Captureday1/Session1/subject1.ASF
:FULLY-SPECIFIED
:DEGREES
301
root 0 0 0 -1.468611095671692 -1.5451437863382624 -3.9688434132295205
lowerback 20.100009217821444 2.9868930510977645 0.06120954393689437
upperback 2.2805637566758805 4.031199262746529 -0.49222971438299856
thorax -8.797878200339548 1.941278328841316 -1.223156393256368
lowerneck -8.52253872892747 -5.935552940636386 -1.3721013734720577
upperneck -1.146550499028148 -8.546267641289756 5.651781605018531
head 1.3298357118729207 -3.9228625662233103 1.4645041130726058
rclavicle -2.5944168598916627E-16 1.1180882638298257E-15
rhumerus 35.767186111851956 -5.64233137597596 -30.023017499556175
rradius 148.87868290773844
rwrist -22.62718599306858
rhand -19.794811017665886 -30.83143205346858
rfingers 7.125019999999963
rthumb 6.565021698176544 -60.6656739691432
lclavicle -1.2071237236827783E-15 1.1669587157658589E-15
lhumerus -47.35920780606433 -6.100405245443057 79.63158381553154
lradius 61.946759645879986
lwrist 10.89499042550039
lhand -14.670090914556631 -19.677140425959152
lfingers 7.1250199999998625
lthumb 11.414296064974566 10.092039455276373
rfemur -4.86925604234209 8.317454902464801 34.74644997754728
rtibia 31.48194931200208
rfoot -18.72125756377526 -8.210848418258738
rtoes 4.618862155633266
lfemur -24.753637474051953 0.49432129798955016 -18.226604627346283
ltibia 41.07986045357167
lfoot -1.7137867144371342 -4.933206568128557
ltoes 11.908767170105968
302
root 0 0 0 -1.4519454124080173 -1.493562435460709 -3.9626000820115768
lowerback 20.166169050612943 2.9611797902476535 -0.0013787223547416794
upperback 2.2747895412043593 3.993912800634819 -0.4591160330244113
thorax -8.837758696094511 1.9252059960399612 -1.1493778808371449
lowerneck -8.455265426379814 -5.943813388781062 -1.3371072352267404
upperneck -0.9074718007926474 -8.555082726113184 5.599371139161753
head 1.40952578624512 -3.926645333129371 1.4395021478156922
rclavicle -3.302512980619882E-18 9.067531536992477E-16
rhumerus 35.2895082599616 -6.436701563761175 -30.500944748684958
rradius 147.6487733470167
rwrist -21.64930564502536
rhand -19.86920848232222 -30.672965222603807
rfingers 7.1250199999999655
rthumb 6.494191895518716 -60.51058915127127
lclavicle -9.980064085751648E-16 9.926211177550126E-16
lhumerus -47.33712438302828 -6.081569497902841 79.59178125303605
lradius 61.931014435113624
lwrist 10.922486182767088
lhand -14.70822094660119 -19.61032146571153
lfingers 7.125019999999861
lthumb 11.3747345926325 10.175164528433154
rfemur -8.887926221319269 7.958445895103245 34.16574328521243
rtibia 34.754415187129865
rfoot -16.61024719418606 -8.45204882653073
rtoes 4.99063235704111
lfemur -22.655969073117973 0.24597177263743397 -18.902093516634135
ltibia 40.85973705282496
lfoot -0.492640282048292 -6.091211769120112
ltoes 12.195423368444793
303
root 0 0 0 -1.4319274292752238 -1.4198196408339703 -3.956169661646113
lowerback 20.220867393283967 2.9258419452329343 -0.08543401228621694
upperback 2.2731421598381916 3.9429428452754127 -0.41012454889268635
thorax -8.865408995680607 1.9036248768323198 -1.044546222991013
lowerneck -8.356530490180944 -5.957552945640215 -1.2986363614445724
upperneck -0.5381658641695175 -8.570903004026302 5.540111158894792
head 1.5276743774733808 -3.933261486966628 1.4103793478872872
rclavicle 3.240622457866975E-16 5.586504646498726E-16
rhumerus 34.59416644998864 -7.33765836935436 -31.178876291383503
rradius 145.9339688566232
rwrist -20.41338430848622
rhand -19.906441026749633 -30.429268711845822
rfingers 7.125019999999967
rthumb 6.458774040334452 -60.26904340235598
lclavicle -7.869183794146238E-16 7.465542788491108E-16
lhumerus -47.30399831020895 -6.072519138092179 79.56556822326036
lradius 61.91942436195778
lwrist 10.952969579756322
lhand -14.744152680170757 -19.542527386975426
lfingers 7.125019999999859
lthumb 11.336925380321594 10.258918288309037
rfemur -13.368167874487835 7.4330591032243545 33.428112983223556
rtibia 38.90894504261307
rfoot -14.233382458204245 -8.686049240020077
rtoes 5.694291866559104
lfemur -20.263512522790037 0.0739103929634024 -19.524658301723406
ltibia 41.466914929299236
lfoot 0.885942364909333 -7.500032926753749
ltoes 11.870913222114808
304
root 0 0 0 -1.4101636139718878 -1.3416995401266223 -3.9495014092140863
lowerback 20.275182847755673 2.8782532077821035 -0.19193227773724908
upperback 2.2841304620707885 3.8751559974512775 -0.34247525586959715
thorax -8.878964180018153 1.874780827413363 -0.9051084391209806
lowerneck -8.213542319244475 -5.97131426892092 -1.2476427311842766
upperneck -0.07419484503870599 -8.582499876213713 5.459762648039471
head 1.6710243558565248 -3.9389411016163756 1.3723441481762526
rclavicle 7.237093988830071E-16 1.4190413232043597E-16
rhumerus 33.59832900115933 -8.316040852862052 -32.10057626403679
rradius 143.704352014533
rwrist -18.93900517901965
rhand -19.903840951479452 -30.113760884276925
rfingers 7.125019999999968
rthumb 6.461058531502999 -59.95544416277795
lclavicle -5.972829959251381E-16 4.837910899861386E-16
lhumerus -47.26238152817296 -6.078258509370226 79.56470698876103
lradius 61.911735589378196
lwrist 10.978965397299044
lhand -14.769170597544585 -19.484928114144722
lfingers 7.125019999999858
lthumb 11.30985913898749 10.328578144135882
rfemur -17.180833853075576 6.689502646664599 32.62560499723185
rtibia 43.60748149409362
rfoot -12.085462675679464 -8.677469974570588
rtoes 6.522689813084047
lfemur -17.848209978138726 -0.07493634696525531 -19.974946941337997
ltibia 42.544880874833055
lfoot 2.2691636290845807 -8.926090709365774
ltoes 10.888799470089793
